/* XPM */
static char * arrow_sel_xpm[] = {
"6 7 2 1",
" 	c #55AAFF",
".	c #000000",
" .    ",
" ..   ",
" ...  ",
" .... ",
" ...  ",
" ..   ",
" .    "};
