/* XPM */
static char * btm_le_un_xpm[] = {
"3 3 3 1",
" 	c #666666",
".	c #444444",
"+	c #222222",
" ..",
" ..",
".++"};
