/* XPM */
static char * btn_max_pr_xpm[] = {
"16 16 17 1",
" 	g #6C6C6C",
".	g #393939",
"+	g #727272",
"@	g #3F3F3F",
"#	g #797979",
"$	g #464646",
"%	g #7F7F7F",
"&	g #4C4C4C",
"*	g #FFFFFF",
"=	g #858585",
"-	g #525252",
";	g #8C8C8C",
">	g #595959",
",	g #929292",
"'	g #5F5F5F",
")	g #999999",
"!	g #666666",
" ...............",
"+@@@@@@@@@@@@@@.",
"#$$$$$$$$$$$$$$.",
"%&&&&&&**&&&&&&.",
"=------**------.",
";>>>>>>**>>>>>>.",
",''''''**''''''.",
")!!**********!!.",
")  **********  .",
")++++++**++++++@",
")######**######$",
")%%%%%%**%%%%%%&",
")======**======-",
");;;;;;;;;;;;;;>",
"),,,,,,,,,,,,,,'",
")))))))))))))))!"};
