/* XPM */
static char * btn_max_ho_xpm[] = {
"16 16 17 1",
" 	g #999999",
".	g #666666",
"+	g #929292",
"@	g #5F5F5F",
"#	g #8C8C8C",
"$	g #595959",
"%	g #858585",
"&	g #FFFFFF",
"*	g #525252",
"=	g #7F7F7F",
"-	g #4C4C4C",
";	g #797979",
">	g #464646",
",	g #727272",
"'	g #3F3F3F",
")	g #6C6C6C",
"!	g #393939",
"               .",
" ++++++++++++++@",
" ##############$",
" %%%%%%&&%%%%%%*",
" ======&&======-",
" ;;;;;;&&;;;;;;>",
" ,,,,,,&&,,,,,,'",
" ))&&&&&&&&&&))!",
" ..&&&&&&&&&&..!",
"+@@@@@@&&@@@@@@!",
"#$$$$$$&&$$$$$$!",
"%******&&******!",
"=------&&------!",
";>>>>>>>>>>>>>>!",
",''''''''''''''!",
")!!!!!!!!!!!!!!!"};
