/* XPM */
static char * btn_clo_un_xpm[] = {
"16 16 27 1",
" 	c #666666",
".	c #444444",
"+	c #616161",
"@	c #3F3F3F",
"#	c #5D5D5D",
"$	c #3B3B3B",
"%	c #595959",
"&	c #6B6B6B",
"*	c #373737",
"=	c #555555",
"-	c #696969",
";	c #888888",
">	c #7D7D7D",
",	c #333333",
"'	c #505050",
")	c #7C7C7C",
"!	c #2E2E2E",
"~	c #4C4C4C",
"{	c #2A2A2A",
"]	c #484848",
"^	c #7B7B7B",
"/	c #262626",
"(	c #7A7A7A",
"_	c #797979",
":	c #787878",
"<	c #575757",
"[	c #777777",
"               .",
" ++++++++++++++@",
" ##############$",
" %%%&%%%%%%&%%%*",
" ==-;>====>;-==,",
" ''');)'');)'''!",
" ~~~~);));)~~~~{",
" ]]]]]^;;^]]]]]/",
" .....(;;(...../",
"+@@@@_;__;_@@@@/",
"#$$$:;:$$:;:$$$/",
"%**<;[****[;<**/",
"=,,,=,,,,,,=,,,/",
"'!!!!!!!!!!!!!!/",
"~{{{{{{{{{{{{{{/",
"]///////////////"};
