/* XPM */
static char * btn_clo_ho_xpm[] = {
"16 16 29 1",
" 	c #999999",
".	c #666666",
"+	c #929292",
"@	c #5F5F5F",
"#	c #8C8C8C",
"$	c #595959",
"%	c #858585",
"&	c #B6B6B6",
"*	c #525252",
"=	c #7F7F7F",
"-	c #B2B2B2",
";	c #FFFFFF",
">	c #E5E5E5",
",	c #4C4C4C",
"'	c #797979",
")	c #E4E4E4",
"!	c #464646",
"~	c #727272",
"{	c #E2E2E2",
"]	c #3F3F3F",
"^	c #6C6C6C",
"/	c #E1E1E1",
"(	c #393939",
"_	c #E0E0E0",
":	c #DFDFDF",
"<	c #DDDDDD",
"[	c #979797",
"}	c #DCDCDC",
"|	c #939393",
"               .",
" ++++++++++++++@",
" ##############$",
" %%%&%%%%%%&%%%*",
" ==-;>====>;-==,",
" ''');)'');)'''!",
" ~~~~{;{{;{~~~~]",
" ^^^^^/;;/^^^^^(",
" ....._;;_.....(",
"+@@@@:;::;:@@@@(",
"#$$$<;<$$<;<$$$(",
"%**[;}****};[**(",
"=,,,|,,,,,,|,,,(",
"'!!!!!!!!!!!!!!(",
"~]]]]]]]]]]]]]](",
"^((((((((((((((("};
