/* XPM */
static char * btn_min_un_xpm[] = {
"16 16 17 1",
" 	c #666666",
".	c #444444",
"+	c #616161",
"@	c #3F3F3F",
"#	c #5D5D5D",
"$	c #3B3B3B",
"%	c #595959",
"&	c #373737",
"*	c #555555",
"=	c #333333",
"-	c #505050",
";	c #2E2E2E",
">	c #4C4C4C",
",	c #2A2A2A",
"'	c #484848",
")	c #888888",
"!	c #262626",
"               .",
" ++++++++++++++@",
" ##############$",
" %%%%%%%%%%%%%%&",
" **************=",
" --------------;",
" >>>>>>>>>>>>>>,",
" ''))))))))))''!",
" ..))))))))))..!",
"+@@@@@@@@@@@@@@!",
"#$$$$$$$$$$$$$$!",
"%&&&&&&&&&&&&&&!",
"*==============!",
"-;;;;;;;;;;;;;;!",
">,,,,,,,,,,,,,,!",
"'!!!!!!!!!!!!!!!"};
