/* XPM */
static char * btn_clo_pr_xpm[] = {
"16 16 29 1",
" 	c #6C6C6C",
".	c #393939",
"+	c #727272",
"@	c #3F3F3F",
"#	c #797979",
"$	c #464646",
"%	c #7F7F7F",
"&	c #4C4C4C",
"*	c #939393",
"=	c #858585",
"-	c #525252",
";	c #979797",
">	c #FFFFFF",
",	c #DCDCDC",
"'	c #8C8C8C",
")	c #595959",
"!	c #DDDDDD",
"~	c #929292",
"{	c #5F5F5F",
"]	c #DFDFDF",
"^	c #999999",
"/	c #666666",
"(	c #E0E0E0",
"_	c #E1E1E1",
":	c #E2E2E2",
"<	c #E4E4E4",
"[	c #B2B2B2",
"}	c #E5E5E5",
"|	c #B6B6B6",
" ...............",
"+@@@@@@@@@@@@@@.",
"#$$$$$$$$$$$$$$.",
"%&&&*&&&&&&*&&&.",
"=--;>,----,>;--.",
"')))!>!))!>!))).",
"~{{{{]>]]>]{{{{.",
"^/////(>>(/////.",
"^     _>>_     .",
"^++++:>::>:++++@",
"^###<><##<><###$",
"^%%[>}%%%%}>[%%&",
"^===|======|===-",
"^'''''''''''''')",
"^~~~~~~~~~~~~~~{",
"^^^^^^^^^^^^^^^/"};
