/* XPM */
static char * btm_le_xpm[] = {
"3 3 5 1",
" 	c #666666",
".	c #555555",
"+	c #444444",
"@	c #333333",
"#	c #222222",
" .+",
" +@",
"+##"};
