/* XPM */
static char * top_ri_xpm[] = {
"3 3 5 1",
" 	c #666666",
".	c #444444",
"+	c #555555",
"@	c #222222",
"#	c #333333",
"  .",
"+.@",
".#@"};
