/* XPM */
static char * title_le_un_xpm[] = {
"1 16 8 1",
" 	c #666666",
".	c #616161",
"+	c #5D5D5D",
"@	c #595959",
"#	c #555555",
"$	c #505050",
"%	c #4C4C4C",
"&	c #484848",
" ",
" ",
" ",
" ",
" ",
" ",
" ",
" ",
" ",
".",
"+",
"@",
"#",
"$",
"%",
"&"};
