/* XPM */
static char * title_pr_xpm[] = {
"1 16 16 1",
" 	c #393939",
".	c #3F3F3F",
"+	c #464646",
"@	c #4C4C4C",
"#	c #525252",
"$	c #595959",
"%	c #5F5F5F",
"&	c #666666",
"*	c #6C6C6C",
"=	c #727272",
"-	c #797979",
";	c #7F7F7F",
">	c #858585",
",	c #8C8C8C",
"'	c #929292",
")	c #999999",
" ",
".",
"+",
"@",
"#",
"$",
"%",
"&",
"*",
"=",
"-",
";",
">",
",",
"'",
")"};
