/* XPM */
static char * title_le_pr_xpm[] = {
"1 16 8 1",
" 	c #6C6C6C",
".	c #727272",
"+	c #797979",
"@	c #7F7F7F",
"#	c #858585",
"$	c #8C8C8C",
"%	c #929292",
"&	c #999999",
" ",
".",
"+",
"@",
"#",
"$",
"%",
"&",
"&",
"&",
"&",
"&",
"&",
"&",
"&",
"&"};
