/* XPM */
static char * top_ri_un_xpm[] = {
"3 3 4 1",
" 	c #666666",
".	c #111111",
"+	c #444444",
"@	c #222222",
"  .",
"++@",
"++@"};
