/* XPM */
static char * top_ri_fo_xpm[] = {
"3 3 3 1",
" 	c #999999",
".	c #666666",
"+	c #333333",
"  .",
"..+",
"..+"};
