<?xml version="1.0" ?>
<!DOCTYPE svg  PUBLIC '-//W3C//DTD SVG 1.1//EN'  'http://www.w3.org/Graphics/SVG/1.1/DTD/svg11.dtd'>
<!-- Uploaded to: SVG Repo, www.svgrepo.com, Generator: SVG Repo Mixer Tools -->
<svg fill="#000000" width="800px" height="800px" viewBox="0 0 512 512" version="1.1" xml:space="preserve" xmlns="http://www.w3.org/2000/svg" xmlns:xlink="http://www.w3.org/1999/xlink">
<g id="_x35_99_x2C__Backup_x2C__clock_x2C__clockwise_x2C__counter_x2C__time">
<g>
<path d="M379.142,209.389c-8.612-32.116-29.47-60.965-60.536-78.896    c-31.052-17.932-66.459-21.579-98.588-12.968c-32.102,8.611-60.95,29.456-78.883,60.509    c-17.934,31.076-21.58,66.484-12.968,98.601s29.455,60.964,60.521,78.897c31.063,17.932,66.473,21.578,98.588,12.967    c32.116-8.611,60.95-29.481,78.884-60.533C384.09,276.912,387.74,241.504,379.142,209.389 M321.709,125.123    c32.561,18.793,54.418,49.009,63.434,82.67c9.016,33.635,5.18,70.716-13.603,103.262c-18.804,32.572-49.021,54.43-82.656,63.447    c-33.649,9.016-70.727,5.191-103.288-13.602c-32.558-18.793-54.415-49.01-63.431-82.671c-9.019-33.635-5.194-70.716,13.6-103.262    c18.793-32.571,49.01-54.43,82.659-63.446C252.059,102.504,289.15,106.329,321.709,125.123z M314.251,145.461    c-0.354-1.291-1.204-2.457-2.446-3.191c-1.253-0.709-2.686-0.861-3.986-0.507c-1.292,0.354-2.472,1.19-3.194,2.431    c-0.709,1.268-0.86,2.686-0.506,4.003c0.33,1.241,1.141,2.38,2.316,3.114l0.116,0.051c1.253,0.734,2.686,0.887,3.986,0.532    c1.295-0.354,2.471-1.189,3.194-2.431C314.451,148.196,314.592,146.777,314.251,145.461z M314.907,136.9    c2.737,1.595,4.587,4.128,5.345,6.965c0.762,2.812,0.432,5.951-1.151,8.688c-1.583,2.735-4.13,4.584-6.966,5.344    c-2.825,0.76-5.952,0.432-8.687-1.14l-0.141-0.102c-2.671-1.569-4.457-4.103-5.204-6.864c-0.748-2.811-0.432-5.951,1.151-8.687    c1.582-2.735,4.13-4.584,6.966-5.344C309.032,135,312.159,135.33,314.907,136.9z M354.901,188.848    c0.329-1.292,0.204-2.71-0.481-3.926l-0.053-0.076c-0.709-1.241-1.884-2.077-3.176-2.432c-1.281-0.354-2.685-0.203-3.912,0.482    l-0.078,0.023c-1.242,0.736-2.088,1.9-2.432,3.192c-0.341,1.267-0.215,2.659,0.441,3.874l0.064,0.102    c0.723,1.267,1.901,2.104,3.193,2.457c1.291,0.354,2.733,0.203,3.976-0.506C353.697,191.305,354.547,190.139,354.901,188.848z     M359.927,182.085c1.433,2.659,1.698,5.647,0.976,8.358c-0.758,2.811-2.607,5.369-5.33,6.965l-0.103,0.051    c-2.71,1.545-5.798,1.85-8.599,1.09c-2.836-0.76-5.38-2.609-6.963-5.345l-0.102-0.177c-1.494-2.711-1.786-5.75-1.053-8.512    c0.733-2.709,2.471-5.191,5.04-6.762l0.635-0.381c2.66-1.418,5.661-1.696,8.37-0.962c2.709,0.71,5.166,2.458,6.764,5.04    L359.927,182.085z M368.427,246.721c0.937-0.937,1.52-2.254,1.52-3.723c0-1.443-0.583-2.761-1.52-3.697    c-0.951-0.938-2.257-1.52-3.724-1.52c-1.442,0-2.762,0.582-3.699,1.52c-0.947,0.937-1.529,2.254-1.529,3.697    s0.582,2.761,1.529,3.723c0.938,0.938,2.257,1.52,3.699,1.52C366.16,248.24,367.465,247.659,368.427,246.721z M376.176,242.998    c0,3.166-1.291,6.028-3.369,8.105c-2.063,2.077-4.924,3.369-8.104,3.369c-3.154,0-6.029-1.292-8.107-3.344    c-2.063-2.077-3.354-4.965-3.354-8.131c0-3.141,1.281-6.002,3.354-8.079l0.039-0.025c2.078-2.077,4.941-3.343,8.068-3.343    c3.166,0,6.029,1.266,8.104,3.343l0.028,0.051C374.898,237.021,376.176,239.883,376.176,242.998z M351.191,303.608    c1.229-0.329,2.342-1.115,3.064-2.229l0.238-0.431c0.621-1.189,0.736-2.532,0.407-3.773c-0.33-1.216-1.116-2.33-2.243-3.064    l-0.393-0.229c-1.2-0.608-2.559-0.734-3.797-0.405c-1.292,0.355-2.471,1.19-3.193,2.432c-0.709,1.241-0.86,2.686-0.506,4.002    c0.344,1.292,1.189,2.457,2.432,3.166C348.454,303.811,349.887,303.963,351.191,303.608z M359.702,304.343    c-1.586,2.685-4.116,4.509-6.903,5.269c-2.824,0.76-5.952,0.43-8.686-1.141c-2.752-1.596-4.598-4.128-5.359-6.965    c-0.748-2.837-0.432-5.951,1.154-8.688c1.583-2.761,4.127-4.584,6.963-5.344c2.826-0.76,5.953-0.431,8.689,1.14l0.176,0.101    c2.636,1.596,4.418,4.104,5.166,6.863c0.762,2.813,0.432,5.928-1.15,8.688L359.702,304.343z M307.818,344.26    c1.301,0.329,2.733,0.202,3.986-0.532c1.242-0.709,2.092-1.874,2.446-3.165c0.329-1.268,0.2-2.66-0.446-3.876l-0.073-0.126    c-0.724-1.242-1.899-2.103-3.194-2.433c-1.252-0.329-2.646-0.228-3.86,0.431l-0.126,0.076c-1.242,0.734-2.092,1.9-2.433,3.191    c-0.34,1.266-0.228,2.659,0.442,3.875l0.063,0.102C305.347,343.069,306.526,343.904,307.818,344.26z M314.907,349.123    c-2.734,1.57-5.861,1.898-8.687,1.139c-2.836-0.76-5.384-2.607-6.966-5.344l-0.103-0.178c-1.491-2.709-1.782-5.749-1.049-8.51    c0.758-2.837,2.607-5.369,5.345-6.965l0.189-0.102c2.695-1.494,5.749-1.773,8.511-1.038c2.822,0.76,5.369,2.583,6.952,5.345    l0.103,0.177c1.491,2.685,1.782,5.749,1.049,8.509C319.494,344.969,317.645,347.526,314.907,349.123z M249.942,357.785    c0.938,0.937,2.253,1.52,3.71,1.52c1.446,0,2.762-0.583,3.698-1.52c0.951-0.938,1.545-2.254,1.545-3.725    c0-1.443-0.594-2.76-1.53-3.697c-0.937-0.938-2.257-1.545-3.713-1.545c-1.394,0-2.66,0.558-3.598,1.418l-0.112,0.127    c-0.937,0.938-1.533,2.254-1.533,3.697C248.409,355.531,248.992,356.848,249.942,357.785z M253.652,365.535    c-3.152,0-6.016-1.292-8.093-3.344l-0.035-0.051c-2.067-2.076-3.344-4.938-3.344-8.08c0-3.165,1.292-6.027,3.355-8.104    l0.242-0.202c2.049-1.95,4.836-3.141,7.875-3.141c3.155,0,6.015,1.266,8.093,3.343l0.024,0.051    c2.063,2.077,3.345,4.938,3.345,8.054c0,3.167-1.281,6.029-3.369,8.105C259.695,364.243,256.818,365.535,253.652,365.535z     M193.057,340.563c0.33,1.266,1.151,2.405,2.355,3.114l0.087,0.051c1.243,0.734,2.674,0.861,3.977,0.532    c1.292-0.355,2.471-1.19,3.193-2.457c0.72-1.24,0.86-2.686,0.52-3.977c-0.354-1.291-1.193-2.457-2.446-3.191    c-1.253-0.709-2.685-0.861-3.991-0.507c-1.239,0.33-2.379,1.14-3.102,2.279l-0.074,0.178    C192.854,337.826,192.713,339.245,193.057,340.563z M192.65,349.248l-0.48-0.277c-2.622-1.57-4.38-4.053-5.117-6.814    c-0.733-2.734-0.456-5.749,1-8.434l0.33-0.557c1.583-2.584,4.054-4.331,6.777-5.04c2.811-0.76,5.938-0.431,8.686,1.14    c2.748,1.596,4.583,4.128,5.345,6.965c0.758,2.812,0.432,5.952-1.151,8.688c-1.583,2.736-4.13,4.584-6.952,5.344    C198.35,350.996,195.324,350.719,192.65,349.248z M152.407,297.175c-0.344,1.267-0.218,2.659,0.442,3.876l0.077,0.1    c0.72,1.268,1.885,2.104,3.176,2.458c1.306,0.354,2.737,0.202,3.99-0.532c1.243-0.709,2.088-1.874,2.443-3.191    c0.33-1.241,0.217-2.608-0.442-3.824l-0.175-0.329c-0.737-1.14-1.85-1.925-3.092-2.255c-1.243-0.329-2.622-0.203-3.826,0.431    l-0.365,0.203C153.509,294.845,152.733,295.959,152.407,297.175z M147.44,304.09c-1.495-2.711-1.786-5.75-1.039-8.512    c0.748-2.811,2.597-5.369,5.345-6.964c2.734-1.57,5.865-1.899,8.686-1.14c2.825,0.76,5.37,2.583,6.953,5.318l0.077,0.127    c1.52,2.71,1.825,5.8,1.077,8.586c-0.761,2.812-2.597,5.369-5.345,6.939c-2.734,1.596-5.864,1.926-8.686,1.166    c-2.839-0.76-5.384-2.609-6.966-5.345L147.44,304.09z M138.881,239.301c-0.937,0.937-1.534,2.254-1.534,3.697    c0,1.469,0.583,2.786,1.52,3.723c0.951,0.938,2.268,1.52,3.724,1.52c1.442,0,2.762-0.581,3.699-1.52    c0.948-0.937,1.544-2.254,1.544-3.723c0-1.443-0.596-2.761-1.534-3.697c-0.937-0.938-2.253-1.52-3.709-1.52    c-1.393,0-2.646,0.531-3.583,1.393L138.881,239.301z M131.118,242.998c0-3.166,1.292-6.027,3.355-8.104l0.242-0.202    c2.063-1.951,4.836-3.141,7.875-3.141c3.155,0,6.016,1.266,8.093,3.343l0.024,0.051c2.063,2.077,3.345,4.938,3.345,8.054    c0,3.166-1.281,6.028-3.369,8.105c-2.053,2.077-4.928,3.369-8.093,3.369c-3.151,0-6.015-1.267-8.093-3.344l-0.039-0.051    C132.396,249.002,131.118,246.139,131.118,242.998z M156.102,182.414c-1.253,0.329-2.394,1.14-3.113,2.33l-0.063,0.127    c-0.723,1.241-0.874,2.659-0.519,3.977c0.34,1.291,1.189,2.457,2.428,3.191c1.257,0.709,2.699,0.86,4.004,0.506    c1.214-0.328,2.331-1.114,3.05-2.229l0.242-0.431c0.621-1.19,0.733-2.532,0.404-3.773c-0.327-1.216-1.102-2.331-2.229-3.065    l-0.379-0.202C158.724,182.211,157.358,182.085,156.102,182.414z M147.392,182.034l0.277-0.507    c1.597-2.609,4.092-4.381,6.84-5.116c2.734-0.734,5.749-0.456,8.419,0.987l0.572,0.355c2.569,1.596,4.317,4.053,5.04,6.762    c0.758,2.812,0.428,5.928-1.14,8.688l-0.063,0.075c-1.583,2.711-4.117,4.535-6.903,5.27c-2.72,0.734-5.71,0.455-8.38-0.988    l-0.534-0.279c-2.607-1.596-4.383-4.077-5.117-6.838C145.668,187.707,145.946,184.693,147.392,182.034z M199.476,141.763    c-1.253-0.329-2.646-0.202-3.86,0.456l-0.116,0.051c-1.252,0.734-2.102,1.9-2.442,3.191c-0.33,1.266-0.218,2.634,0.428,3.85    l0.193,0.329c0.72,1.14,1.846,1.925,3.074,2.254c1.256,0.33,2.622,0.202,3.839-0.43l0.365-0.202    c1.13-0.736,1.902-1.85,2.232-3.065c0.327-1.267,0.214-2.66-0.446-3.875l-0.074-0.128    C201.947,142.953,200.768,142.117,199.476,141.763z M192.576,136.799c2.695-1.494,5.749-1.773,8.511-1.038    c2.822,0.76,5.37,2.608,6.952,5.344l0.112,0.177c1.481,2.711,1.772,5.75,1.039,8.51c-0.762,2.813-2.608,5.37-5.345,6.966    c-2.734,1.571-5.864,1.899-8.686,1.14c-2.825-0.76-5.37-2.584-6.966-5.318l-0.063-0.152c-1.534-2.709-1.825-5.774-1.078-8.561    c0.748-2.837,2.597-5.37,5.334-6.965L192.576,136.799z M257.365,128.238c-0.937-0.938-2.257-1.52-3.713-1.52    c-1.457,0-2.772,0.582-3.71,1.52c-0.951,0.937-1.533,2.254-1.533,3.723c0,1.443,0.583,2.735,1.52,3.697    c0.965,0.963,2.281,1.52,3.724,1.52c1.456,0,2.776-0.582,3.698-1.52c0.951-0.937,1.545-2.254,1.545-3.697    C258.896,130.492,258.302,129.175,257.365,128.238z M253.652,120.487c3.155,0,6.015,1.267,8.093,3.344l0.024,0.051    c2.063,2.077,3.345,4.913,3.345,8.079c0,3.141-1.281,6.003-3.355,8.08l-0.038,0.025c-2.078,2.076-4.928,3.344-8.068,3.344    c-3.152,0-6.016-1.268-8.093-3.344l-0.112-0.127c-2.014-2.053-3.267-4.889-3.267-7.979c0-3.166,1.292-6.027,3.355-8.104    l0.053-0.025C247.662,121.754,250.511,120.487,253.652,120.487z M237,246.849l-38.597-13.044l39.369,30.85l59.293-36.498    l-58.138,18.692C238.315,247.051,237.646,247.051,237,246.849z M183.203,222.104L238,240.643l81.606-26.265    c1.636-0.532,3.383,0.354,3.902,2.001c0.452,1.443-0.192,2.963-1.456,3.673l-82.874,51.01c-1.155,0.735-2.583,0.583-3.583-0.228    l-55.292-43.336c-1.341-1.039-1.583-3.015-0.534-4.357C180.595,222.078,181.988,221.697,183.203,222.104z M483.514,169.168    l-41.142-9.169l-7.637,41.462l13.778-9.119c8.608,13.805,11.079,29.787,8.064,44.629c-3.112,15.348-12.094,29.506-26.188,38.828    c-1.432,0.962-1.825,2.887-0.874,4.305c0.938,1.419,2.874,1.824,4.292,0.887c15.516-10.283,25.416-25.885,28.849-42.805    c3.33-16.412,0.597-34.039-8.978-49.262l13.171-8.713c11.968,18.844,15.41,40.752,11.27,61.116    c-4.229,20.87-16.438,40.119-35.597,52.809l-0.481,0.38c-1.218,1.216-1.218,3.191,0,4.406c1.127,1.141,2.924,1.217,4.152,0.229    c20.438-13.627,33.474-34.244,38.004-56.582c4.461-21.934,0.723-45.514-12.182-65.802L483.514,169.168z M29.237,327.391    l41.145,9.145l7.633-41.463l-14.371,9.523c-8.739-13.854-11.259-29.938-8.22-44.881c3.117-15.322,12.094-29.482,26.188-38.828    l0.481-0.379c1.218-1.216,1.218-3.191,0-4.408c-1.126-1.139-2.923-1.215-4.141-0.228c-15.386,10.284-25.198,25.81-28.606,42.627    c-3.355,16.489-0.558,34.269,9.118,49.517l-13.157,8.713c-12.094-18.895-15.589-40.904-11.438-61.37    c4.243-20.87,16.453-40.119,35.601-52.809l0.495-0.38c1.214-1.216,1.214-3.191,0-4.407c-1.13-1.14-2.927-1.216-4.155-0.228    c-20.439,13.651-33.484,34.242-38.019,56.582c-4.457,22.01-0.684,45.717,12.336,66.055L29.237,327.391z M111.247,425.105    c-1.723,0-3.116-1.392-3.116-3.115c0-1.696,1.393-3.114,3.116-3.114H342.72c1.709,0,3.103,1.418,3.103,3.114    c0,1.724-1.394,3.115-3.103,3.115H111.247z M246.788,434.198c-1.72,0-3.113-1.418-3.113-3.114c0-1.724,1.393-3.117,3.113-3.117    h160.173c1.709,0,3.117,1.394,3.117,3.117c0,1.696-1.408,3.114-3.117,3.114H246.788z M423.361,434.198    c-1.72,0-3.113-1.418-3.113-3.114c0-1.724,1.394-3.117,3.113-3.117h20.021c1.709,0,3.116,1.394,3.116,3.117    c0,1.696-1.407,3.114-3.116,3.114H423.361z M102.129,433.919c-1.723,0-3.116-1.392-3.116-3.114c0-1.722,1.393-3.114,3.116-3.114    h75.896c1.72,0,3.113,1.393,3.113,3.114c0,1.723-1.393,3.114-3.113,3.114H102.129z M336.438,100.073l-0.445-0.253    c-39.433-22.693-84.351-27.279-125.107-16.363c-40.826,10.942-77.49,37.461-100.298,76.973    C87.793,199.916,83.161,244.924,94.1,285.752c10.918,40.777,37.383,77.377,76.771,100.197l0.428,0.253    c39.436,22.694,84.354,27.278,125.106,16.361c40.768-10.916,77.367-37.384,100.187-76.769l0.267-0.455    c22.668-39.436,27.266-84.343,16.348-125.095C402.276,159.492,375.821,122.895,336.438,100.073z" style="fill-rule:evenodd;clip-rule:evenodd;"/>
</g>
</g>
<g id="Layer_1"/>
</svg>